<svg id="Layer_1" data-name="Layer 1" xmlns="http://www.w3.org/2000/svg" viewBox="0 0 238.69 312.52"><defs><style>.cls-1{fill:#1d437f;}.cls-2{fill:#9dc43b;}</style></defs><path class="cls-1" d="M125.26,130.84s10,77.41,24.78,126.52c0,0,5.78,25.27,7.22,27.8s2.89,9.75,15.17,8.3,6.13-22.38,2.88-31c0,0-24.8-98.68-27.74-147Z"/><path class="cls-1" d="M155.53,20.34s-26.81,3.57-28.85,61c0,0-1,21.7-1,24s-52.85,28.85-66.38,34.72c0,0-12.26,4.34-5.37,16.6,0,0,6.64,12,23,1,0,0,98-45.45,113.62-91.91S164.21,15,155.53,20.34Zm-6.68,64.85c2.13-36.72,10.7-42.39,15.57-42.54a5.28,5.28,0,0,1,4.87,3.08C176.43,60.34,148.85,85.19,148.85,85.19Z"/><path class="cls-2" d="M156.2,49.1a44.94,44.94,0,0,0-4.09,11.29,89.77,89.77,0,1,1-22.06-5.77A80,80,0,0,1,133.74,43,102,102,0,1,0,156.2,49.1Z"/><path class="cls-1" d="M145.79,242l11.72,45.71a12.21,12.21,0,0,0,14.67,8.83h0a12.21,12.21,0,0,0,8.95-15l-12.56-47.42Z"/><path class="cls-1" d="M98.49,220.22A12,12,0,0,0,108.67,207L93.4,76.43A12.19,12.19,0,0,0,80.22,65.51h0A12.2,12.2,0,0,0,69.13,79L84.85,209.78a12,12,0,0,0,13.64,10.44Z"/></svg>